<svg xmlns="http://www.w3.org/2000/svg" viewBox="0 0 64 64">
  <rect width="64" height="64" rx="14" fill="#0b6b58"/>
  <path fill="#fff" d="M15 17c0-3 2-5 5-5h19c3 0 5 2 5 5v6c0 3-2 5-5 5H20c-3 0-5-2-5-5z"/>
  <path fill="#315c91" d="M20 28c0-3 2-5 5-5h19c3 0 5 2 5 5v6c0 3-2 5-5 5H25c-3 0-5-2-5-5z"/>
  <path fill="#f5f1e8" d="M15 39c0-3 2-5 5-5h19c3 0 5 2 5 5v6c0 3-2 5-5 5H20c-3 0-5-2-5-5z"/>
  <circle cx="42" cy="40" r="10" fill="none" stroke="#17211d" stroke-width="5"/>
  <path fill="#17211d" d="m49 47 4-4 9 9c1 1 1 3 0 4l-1 1c-1 1-3 1-4 0z"/>
</svg>
